<svg viewBox="0 0 45 46" fill="none" xmlns="http://www.w3.org/2000/svg">
<path d="M3.75 11.9792C3.75 10.3271 4.39202 8.74268 5.53482 7.57448C6.67762 6.40629 8.22759 5.75 9.84375 5.75H35.1562C35.9565 5.75 36.7489 5.91112 37.4882 6.22417C38.2276 6.53721 38.8993 6.99605 39.4652 7.57448C40.031 8.15291 40.4799 8.83961 40.7861 9.59537C41.0924 10.3511 41.25 11.1611 41.25 11.9792V34.0208C41.25 34.8389 41.0924 35.6489 40.7861 36.4046C40.4799 37.1604 40.031 37.8471 39.4652 38.4255C38.8993 39.004 38.2276 39.4628 37.4882 39.7758C36.7489 40.0889 35.9565 40.25 35.1562 40.25H9.84375C8.22759 40.25 6.67762 39.5937 5.53482 38.4255C4.39202 37.2573 3.75 35.6729 3.75 34.0208V11.9792ZM17.8125 17.986V28.0121C17.8125 29.1046 18.9562 29.7984 19.8937 29.2732L28.8675 24.2592C29.0889 24.1355 29.2736 23.953 29.4023 23.7311C29.531 23.5093 29.5989 23.256 29.5989 22.9981C29.5989 22.7401 29.531 22.4869 29.4023 22.265C29.2736 22.0431 29.0889 21.8607 28.8675 21.7369L19.8937 16.7248C19.6796 16.6051 19.4386 16.5443 19.1945 16.5486C18.9504 16.5529 18.7117 16.6221 18.5017 16.7493C18.2917 16.8766 18.1177 17.0575 17.9969 17.2744C17.876 17.4912 17.8125 17.7365 17.8125 17.986V17.986Z" fill="#C52626"/>
</svg>
