<svg viewBox="0 0 24 22" fill="none" xmlns="http://www.w3.org/2000/svg">
<path d="M12 19.8711L11.7303 20.2921L12 20.4649L12.2697 20.2921L12 19.8711ZM12 19.8711C12.2697 20.2921 12.2699 20.292 12.27 20.2919L12.2706 20.2916L12.2723 20.2904L12.2786 20.2864L12.3024 20.271C12.323 20.2576 12.3533 20.2378 12.3924 20.212C12.4708 20.1603 12.5849 20.0843 12.7296 19.9857C13.0191 19.7885 13.4314 19.501 13.9257 19.1377C14.9135 18.4118 16.2327 17.3803 17.554 16.1603C18.8733 14.9423 20.2074 13.5246 21.2151 12.0247C22.2184 10.5312 22.9297 8.9095 22.9297 7.29395C22.9297 4.02289 20.2264 1.38867 16.9131 1.38867C14.887 1.38867 13.0911 2.37202 12 3.88229C10.9089 2.37202 9.11298 1.38867 7.08691 1.38867C3.77355 1.38867 1.07031 4.02289 1.07031 7.29395C1.07031 8.9095 1.78157 10.5312 2.78492 12.0247C3.79255 13.5246 5.12674 14.9423 6.44597 16.1603C7.7673 17.3803 9.0865 18.4118 10.0743 19.1377C10.5686 19.501 10.9809 19.7885 11.2704 19.9857C11.4151 20.0843 11.5292 20.1603 11.6076 20.212C11.6467 20.2378 11.677 20.2576 11.6976 20.271L11.7214 20.2864L11.7277 20.2904L11.7294 20.2916L11.73 20.2919C11.7301 20.292 11.7303 20.2921 12 19.8711Z" fill="#FB0404" stroke="#FB0404"/>
</svg>
